<svg xmlns="http://www.w3.org/2000/svg" xmlns:xlink="http://www.w3.org/1999/xlink" width="45" zoomAndPan="magnify" viewBox="0 0 33.75 34.499999" height="46" preserveAspectRatio="xMidYMid meet" version="1.0"><defs><clipPath id="2e318a6d8a"><path d="M 2 3.550781 L 30 3.550781 L 30 30.164062 L 2 30.164062 Z M 2 3.550781 " clip-rule="nonzero"/></clipPath><clipPath id="c13fac7307"><path d="M 0.117188 21 L 13 21 L 13 28 L 0.117188 28 Z M 0.117188 21 " clip-rule="nonzero"/></clipPath></defs><g clip-path="url(#2e318a6d8a)"><path fill="#ffffff" d="M 26.320312 24.679688 C 25.554688 24.269531 24.679688 23.914062 23.730469 23.613281 L 23.640625 24.339844 C 24.449219 24.601562 25.195312 24.910156 25.859375 25.253906 C 24.074219 27.34375 21.628906 28.851562 18.847656 29.445312 C 19.332031 29.0625 19.792969 28.570312 20.21875 27.976562 C 20.117188 27.839844 20.042969 27.679688 20.003906 27.507812 L 19.921875 27.125 C 18.9375 28.660156 17.769531 29.558594 16.539062 29.707031 L 16.539062 26.800781 C 16.429688 26.988281 16.273438 27.148438 16.078125 27.261719 L 15.898438 27.363281 C 15.871094 27.378906 15.84375 27.394531 15.816406 27.40625 L 15.816406 29.707031 C 14.335938 29.527344 12.9375 28.261719 11.847656 26.09375 C 11.488281 25.382812 11.179688 24.601562 10.921875 23.765625 C 11.417969 23.664062 11.929688 23.582031 12.453125 23.507812 C 12.46875 23.414062 12.496094 23.320312 12.535156 23.230469 L 12.1875 22.816406 C 11.6875 22.886719 11.195312 22.972656 10.71875 23.070312 C 10.25 21.332031 9.992188 19.386719 9.960938 17.363281 L 14.480469 17.363281 L 13.746094 16.703125 C 13.722656 16.683594 13.703125 16.660156 13.683594 16.640625 L 9.960938 16.640625 C 9.992188 14.628906 10.246094 12.695312 10.710938 10.964844 C 12.300781 11.292969 14.03125 11.476562 15.816406 11.5 L 15.816406 14.148438 C 15.984375 14.175781 16.152344 14.21875 16.3125 14.285156 L 16.539062 14.382812 L 16.539062 11.5 C 18.324219 11.476562 20.058594 11.292969 21.648438 10.964844 C 22.089844 12.617188 22.339844 14.453125 22.386719 16.367188 L 23.066406 15.972656 C 23.078125 15.964844 23.089844 15.960938 23.101562 15.953125 C 23.027344 14.136719 22.777344 12.394531 22.355469 10.804688 C 23.855469 10.445312 25.207031 9.953125 26.335938 9.34375 C 27.878906 11.386719 28.824219 13.90625 28.898438 16.640625 L 27.292969 16.640625 C 27.339844 16.878906 27.324219 17.125 27.253906 17.363281 L 28.898438 17.363281 C 28.824219 20.105469 27.875 22.632812 26.320312 24.679688 Z M 6.5 25.253906 C 7.558594 24.703125 8.816406 24.253906 10.210938 23.921875 C 10.488281 24.820312 10.816406 25.65625 11.199219 26.421875 C 11.867188 27.742188 12.652344 28.761719 13.511719 29.445312 C 10.730469 28.851562 8.28125 27.34375 6.5 25.253906 Z M 3.457031 17.363281 L 9.238281 17.363281 C 9.265625 19.4375 9.53125 21.433594 10.011719 23.226562 C 8.515625 23.585938 7.164062 24.074219 6.035156 24.679688 C 4.484375 22.632812 3.535156 20.105469 3.457031 17.363281 Z M 6.019531 9.347656 C 7.148438 9.953125 8.503906 10.445312 10.003906 10.804688 C 9.527344 12.59375 9.265625 14.578125 9.238281 16.640625 L 3.457031 16.640625 C 3.535156 13.90625 4.476562 11.386719 6.019531 9.347656 Z M 15.816406 4.296875 L 15.816406 10.773438 C 14.097656 10.753906 12.4375 10.578125 10.910156 10.265625 C 11.171875 9.421875 11.484375 8.628906 11.847656 7.910156 C 12.9375 5.742188 14.335938 4.476562 15.816406 4.296875 Z M 13.511719 4.558594 C 12.652344 5.242188 11.867188 6.261719 11.199219 7.585938 C 10.8125 8.355469 10.480469 9.203125 10.203125 10.109375 C 8.804688 9.777344 7.539062 9.328125 6.480469 8.773438 C 8.265625 6.671875 10.71875 5.15625 13.511719 4.558594 Z M 16.539062 4.296875 C 18.023438 4.476562 19.417969 5.742188 20.507812 7.910156 C 20.871094 8.628906 21.183594 9.421875 21.445312 10.265625 C 19.921875 10.578125 18.257812 10.753906 16.539062 10.773438 Z M 25.875 8.769531 C 24.816406 9.324219 23.550781 9.777344 22.15625 10.109375 C 21.878906 9.203125 21.542969 8.355469 21.15625 7.585938 C 20.492188 6.261719 19.707031 5.242188 18.847656 4.558594 C 21.636719 5.15625 24.089844 6.671875 25.875 8.769531 Z M 16.179688 3.550781 C 8.761719 3.550781 2.726562 9.585938 2.726562 17.003906 C 2.726562 24.417969 8.761719 30.453125 16.179688 30.453125 C 23.59375 30.453125 29.628906 24.417969 29.628906 17.003906 C 29.628906 9.585938 23.59375 3.550781 16.179688 3.550781 " fill-opacity="1" fill-rule="nonzero"/></g><path fill="#ffffff" d="M 15.90625 20.324219 C 15.964844 20.28125 16.023438 20.238281 16.082031 20.199219 C 16.082031 20.199219 16.273438 20.058594 16.316406 20.027344 L 16.539062 19.804688 L 16.539062 19.21875 L 15.816406 18.566406 L 15.816406 20.394531 L 15.90625 20.324219 " fill-opacity="1" fill-rule="nonzero"/><g clip-path="url(#c13fac7307)"><path fill="#ffffff" d="M 12.4375 24.027344 C 10.4375 24.886719 8.542969 25.578125 6.863281 26.050781 C 3.289062 27.054688 1.675781 26.792969 1.359375 26.207031 C 1.058594 25.652344 1.648438 24.234375 4.214844 21.925781 L 3.730469 21.390625 C 1.140625 23.71875 0.128906 25.457031 0.722656 26.554688 C 1.058594 27.171875 1.859375 27.449219 2.992188 27.449219 C 5.261719 27.449219 8.859375 26.34375 12.714844 24.691406 C 12.609375 24.546875 12.527344 24.382812 12.476562 24.207031 C 12.460938 24.144531 12.449219 24.085938 12.4375 24.027344 " fill-opacity="1" fill-rule="nonzero"/></g><path fill="#ffffff" d="M 32.554688 9.289062 C 31.960938 8.199219 29.976562 8.09375 26.644531 8.976562 L 26.832031 9.675781 C 30.125 8.804688 31.617188 9.082031 31.917969 9.632812 C 32.234375 10.21875 31.574219 11.714844 28.78125 14.160156 C 28.179688 14.691406 27.511719 15.230469 26.789062 15.78125 C 26.800781 15.789062 26.8125 15.800781 26.824219 15.8125 C 26.851562 15.835938 26.875 15.859375 26.894531 15.878906 C 26.910156 15.894531 26.921875 15.90625 26.933594 15.917969 C 26.960938 15.949219 26.988281 15.984375 27.015625 16.019531 L 27.039062 16.050781 C 27.066406 16.089844 27.09375 16.132812 27.117188 16.175781 C 27.152344 16.238281 27.183594 16.300781 27.210938 16.367188 C 30.957031 13.523438 33.375 10.800781 32.554688 9.289062 " fill-opacity="1" fill-rule="nonzero"/><path fill="#ffffff" d="M 19.773438 21.847656 L 20.949219 27.304688 C 20.984375 27.472656 21.175781 27.554688 21.324219 27.46875 L 21.914062 27.128906 C 22.195312 26.964844 22.382812 26.683594 22.421875 26.363281 L 23.222656 19.855469 L 24.789062 18.945312 C 24.828125 18.921875 24.867188 18.898438 24.90625 18.875 C 24.914062 18.871094 24.921875 18.863281 24.929688 18.859375 C 24.96875 18.835938 25.003906 18.8125 25.039062 18.785156 C 25.046875 18.78125 25.054688 18.777344 25.058594 18.773438 C 25.089844 18.75 25.121094 18.726562 25.152344 18.703125 C 25.160156 18.695312 25.167969 18.691406 25.175781 18.6875 C 25.210938 18.660156 25.242188 18.632812 25.277344 18.605469 C 25.285156 18.597656 25.292969 18.589844 25.300781 18.582031 C 25.332031 18.558594 25.359375 18.53125 25.390625 18.507812 C 25.394531 18.503906 25.398438 18.5 25.402344 18.496094 C 25.433594 18.464844 25.464844 18.4375 25.496094 18.40625 C 25.503906 18.398438 25.511719 18.386719 25.523438 18.378906 C 25.550781 18.351562 25.582031 18.320312 25.609375 18.289062 C 25.617188 18.28125 25.621094 18.273438 25.628906 18.265625 C 25.652344 18.242188 25.675781 18.214844 25.695312 18.191406 C 25.707031 18.179688 25.714844 18.167969 25.722656 18.160156 C 25.75 18.128906 25.773438 18.097656 25.796875 18.066406 C 25.808594 18.054688 25.816406 18.042969 25.824219 18.03125 C 25.84375 18.003906 25.863281 17.980469 25.882812 17.953125 C 25.890625 17.941406 25.894531 17.933594 25.902344 17.925781 C 25.925781 17.890625 25.949219 17.855469 25.972656 17.820312 C 25.980469 17.804688 25.992188 17.789062 26 17.777344 C 26.015625 17.75 26.03125 17.726562 26.042969 17.703125 C 26.054688 17.6875 26.0625 17.671875 26.070312 17.65625 C 26.089844 17.628906 26.105469 17.597656 26.121094 17.566406 C 26.128906 17.558594 26.132812 17.550781 26.136719 17.539062 C 26.15625 17.5 26.175781 17.460938 26.195312 17.421875 C 26.199219 17.410156 26.207031 17.398438 26.214844 17.382812 C 26.226562 17.355469 26.242188 17.324219 26.253906 17.292969 C 26.257812 17.28125 26.265625 17.265625 26.269531 17.253906 C 26.289062 17.210938 26.304688 17.171875 26.320312 17.128906 C 26.378906 16.964844 26.359375 16.792969 26.277344 16.65625 C 26.269531 16.640625 26.261719 16.625 26.25 16.609375 C 26.25 16.609375 26.246094 16.605469 26.242188 16.601562 C 26.234375 16.585938 26.222656 16.574219 26.210938 16.5625 C 26.207031 16.558594 26.207031 16.554688 26.203125 16.550781 C 26.195312 16.542969 26.183594 16.535156 26.175781 16.523438 C 26.171875 16.519531 26.164062 16.515625 26.160156 16.511719 C 26.148438 16.503906 26.136719 16.492188 26.125 16.484375 C 26.121094 16.480469 26.113281 16.476562 26.105469 16.472656 C 26.097656 16.464844 26.089844 16.460938 26.082031 16.457031 C 26.074219 16.453125 26.070312 16.449219 26.0625 16.445312 C 26.046875 16.4375 26.035156 16.429688 26.019531 16.421875 C 26.011719 16.421875 26.003906 16.417969 25.996094 16.414062 C 25.988281 16.410156 25.976562 16.40625 25.964844 16.402344 C 25.957031 16.402344 25.953125 16.398438 25.945312 16.398438 C 25.925781 16.394531 25.910156 16.386719 25.890625 16.386719 C 25.085938 16.25 24.257812 16.398438 23.550781 16.808594 L 23.371094 16.910156 L 22.53125 17.398438 L 21.984375 17.71875 L 15.9375 15.175781 C 15.640625 15.050781 15.300781 15.070312 15.023438 15.234375 L 14.433594 15.574219 C 14.285156 15.660156 14.261719 15.867188 14.390625 15.984375 L 18.539062 19.71875 C 18.355469 19.828125 18.171875 19.945312 17.988281 20.0625 C 17.871094 20.136719 17.757812 20.210938 17.640625 20.289062 C 17.640625 20.289062 17.636719 20.292969 17.632812 20.292969 C 17.519531 20.367188 17.410156 20.441406 17.300781 20.519531 C 17.292969 20.523438 17.289062 20.523438 17.285156 20.527344 C 17.171875 20.605469 17.058594 20.6875 16.945312 20.765625 C 16.878906 20.8125 16.8125 20.859375 16.746094 20.90625 C 16.714844 20.929688 16.683594 20.953125 16.652344 20.976562 C 16.59375 21.019531 16.539062 21.058594 16.484375 21.101562 C 16.433594 21.136719 16.386719 21.171875 16.335938 21.210938 C 16.296875 21.242188 16.253906 21.273438 16.210938 21.304688 C 16.117188 21.378906 16.023438 21.449219 15.933594 21.523438 L 14.894531 22.335938 L 12.828125 21.070312 C 12.722656 21.007812 12.59375 21.003906 12.488281 21.066406 L 12.308594 21.167969 C 12.234375 21.214844 12.210938 21.308594 12.253906 21.382812 C 12.257812 21.390625 12.261719 21.398438 12.269531 21.40625 L 13.78125 23.214844 L 13.625 23.335938 C 13.441406 23.480469 13.34375 23.71875 13.40625 23.945312 C 13.503906 24.28125 13.859375 24.445312 14.164062 24.320312 L 14.375 24.238281 L 15.1875 26.449219 C 15.191406 26.457031 15.195312 26.464844 15.199219 26.472656 C 15.242188 26.546875 15.339844 26.574219 15.414062 26.53125 L 15.59375 26.425781 C 15.699219 26.363281 15.761719 26.25 15.757812 26.128906 L 15.6875 23.707031 L 16.910156 23.210938 C 17.890625 22.816406 18.847656 22.359375 19.773438 21.847656 " fill-opacity="1" fill-rule="nonzero"/></svg>